PathFileType	4	(X/Y/Z)	S15T1V11.trc
DataRate	CameraRate	NumFrames	NumMarkers	Units	OrigDataRate	OrigDataStartFrame	OrigNumFrames
200	200	4	39	mm	200	50	99
Frame#	Time	LSHO			RSHO			LICST			RICST			LASIS			RASIS			LTROC			RTROC			SACR			LTH1			LTH2			LTH3			LTH4			RTH1			RTH2			RTH3			RTH4			LLEP			RLEP			LSK1			LSK2			LSK3			LSK4			RSK1			RSK2			RSK3			RSK4			LLME			RLME			LTOE			LHM5			LHEEL			RTOE			RHM5			RHEEL			RFT1			RFT2			LFT1			LFT2		
		X1	Y1	Z1	X2	Y2	Z2	X3	Y3	Z3	X4	Y4	Z4	X5	Y5	Z5	X6	Y6	Z6	X7	Y7	Z7	X8	Y8	Z8	X9	Y9	Z9	X10	Y10	Z10	X11	Y11	Z11	X12	Y12	Z12	X13	Y13	Z13	X14	Y14	Z14	X15	Y15	Z15	X16	Y16	Z16	X17	Y17	Z17	X18	Y18	Z18	X19	Y19	Z19	X20	Y20	Z20	X21	Y21	Z21	X22	Y22	Z22	X23	Y23	Z23	X24	Y24	Z24	X25	Y25	Z25	X26	Y26	Z26	X27	Y27	Z27	X28	Y28	Z28	X29	Y29	Z29	X30	Y30	Z30	X31	Y31	Z31	X32	Y32	Z32	X33	Y33	Z33	X34	Y34	Z34	X35	Y35	Z35	X36	Y36	Z36	X37	Y37	Z37	X38	Y38	Z38	X39	Y39	Z39

50	0.245000	458.068195	1348.266480	-413.911434	498.237621	1342.927017	-79.200398	486.712873	944.311089	-414.328791	486.280078	958.630664	-93.599885	535.124629	891.119903	-397.166135	542.006313	912.337531	-111.391994	403.751189	850.282398	-390.930858	432.521712	846.572455	-90.773454	375.274009	948.945738	-258.539372	570.348472	639.311655	-435.358583	491.377973	613.514497	-422.037696	597.439664	542.874706	-438.046758	526.338623	516.274279	-420.456011	575.547314	653.958754	-87.878018	498.620189	632.259894	-93.656196	603.224135	559.429871	-101.556963	528.311163	537.317715	-109.166409	562.850932	439.622001	-429.078233	580.488688	425.198185	-123.255995	486.817309	371.869713	-427.095611	457.052773	447.080774	-406.177490	394.013399	334.377110	-408.492924	368.940351	406.542036	-383.941367	581.959054	314.305712	-151.619988	515.246863	344.335419	-115.512703	539.179262	226.442167	-175.073763	465.624109	253.919038	-137.704639	233.092484	290.049428	-371.531243	402.678363	91.492621	-188.540762	286.749891	121.652633	-378.240316	237.778710	173.446366	-418.524768	191.181592	320.748187	-293.065952	581.132800	63.607682	-221.402796	519.403694	50.205268	-164.721901	344.306908	87.711718	-249.526720	357.943309	55.532175	-279.132211	341.586291	60.094920	-223.154574	179.514934	291.738772	-269.114088	163.394491	311.755423	-317.554346
51	0.250000	471.230221	1348.396862	-413.588416	516.508888	1343.506258	-79.518687	500.978063	944.762124	-414.632109	501.340755	958.326074	-93.721010	549.859819	892.051433	-397.469600	556.875346	911.620810	-111.559660	418.960583	850.485748	-391.345466	446.754669	846.418019	-91.157885	390.100793	949.124127	-258.614091	590.887440	641.803397	-433.993791	512.562701	614.049340	-420.776726	620.519750	546.070808	-435.910146	550.055980	517.767630	-418.481977	586.365536	652.248758	-87.648002	509.106575	631.936700	-93.487839	612.311841	557.262315	-101.219820	537.068423	536.511840	-108.776480	588.711549	442.024060	-426.726099	587.014638	423.428104	-122.649462	514.270474	372.473768	-425.349722	482.635907	446.944337	-404.537885	422.209129	332.860584	-407.618129	395.258878	404.390784	-383.287006	586.572151	312.402075	-150.984370	520.332168	343.836965	-115.145855	542.070226	225.379763	-174.595927	468.915083	254.343019	-137.408271	262.204427	284.678186	-372.359615	402.748100	92.695332	-188.165936	321.133553	118.268920	-378.495709	271.172670	168.519420	-419.369696	218.210905	313.942181	-294.431989	580.751726	64.155887	-221.236025	519.048681	50.524400	-164.592896	343.885777	88.797722	-249.215643	357.631087	56.694317	-278.933197	341.264751	61.039372	-222.974491	207.056358	284.587313	-270.647637	191.022299	304.163915	-319.385310
52	0.255000	484.340829	1348.894008	-413.242140	534.640294	1344.509868	-79.946214	515.390450	945.657146	-414.926612	516.593318	958.277026	-93.860780	564.721449	893.432976	-397.773901	571.893897	911.134978	-111.783954	434.267679	851.190124	-391.891039	461.089441	846.530800	-91.607255	405.102325	949.666914	-258.686829	611.292029	644.711513	-432.561526	533.627710	615.074775	-419.443888	643.369299	549.703456	-433.645819	573.551128	519.775529	-416.384135	596.988852	650.753563	-87.518818	519.398565	631.929165	-93.395743	621.083757	555.318511	-101.012010	545.494842	536.021499	-108.480023	614.265591	444.854354	-424.269523	593.066131	421.958775	-122.111590	541.587680	373.362719	-423.481796	507.941401	446.966320	-402.822748	450.430545	331.448518	-406.598278	421.458689	402.232919	-382.533882	590.826858	310.838506	-150.359421	525.038467	343.581130	-114.831354	544.769404	224.621277	-174.083709	471.990851	254.978380	-137.143513	291.568550	279.073529	-373.005049	402.912403	94.053046	-187.750957	356.015725	114.933323	-378.436361	305.005779	163.481818	-419.936494	245.492371	306.804297	-295.665538	580.374450	64.751413	-221.037272	518.704170	50.852979	-164.438243	343.575432	90.047303	-248.869663	357.423730	58.031185	-278.708577	341.032839	62.136862	-222.778990	234.927494	277.112823	-272.022811	218.941415	296.180820	-321.056808
53	0.260000	497.412412	1349.742659	-412.875502	552.622713	1345.923933	-80.478486	529.966508	946.985521	-415.205910	532.052615	958.479742	-94.017610	579.722235	895.250173	-398.071665	587.072228	910.876834	-112.062674	449.684108	852.382880	-392.557697	475.539958	846.911974	-92.117049	420.287583	950.567453	-258.754073	631.551986	648.007644	-431.073900	554.554208	616.572572	-418.061346	665.963602	553.735111	-431.275174	596.791030	522.268459	-414.192871	607.447209	649.492339	-87.495970	529.531546	632.248201	-93.381424	629.579790	553.624723	-100.940206	553.635533	535.865294	-108.282503	639.472528	448.073979	-421.736970	598.697740	420.819203	-121.651707	568.735378	374.515701	-421.512311	532.948888	447.116361	-401.058722	478.656723	330.134919	-405.443627	447.531742	400.053239	-381.694603	594.774612	309.639092	-149.755160	529.414838	343.592507	-114.572269	547.325371	224.181894	-173.543775	474.897232	255.842479	-136.912050	321.185889	273.255225	-373.457403	403.208503	95.573726	-187.298376	391.357883	111.679733	-378.055385	339.254048	158.370192	-420.212822	273.048261	299.354718	-296.749426	580.021711	65.350922	-220.818813	518.385674	51.172123	-164.264778	343.416392	91.489579	-248.486967	357.347995	59.567258	-278.455664	340.919077	63.420725	-222.563843	263.150399	269.340211	-273.221562	247.175722	287.832688	-322.546849
